<svg width="210" height="158" viewBox="0 0 210 158" fill="none" xmlns="http://www.w3.org/2000/svg">
<g clip-path="url(#clip0_3_121)">
<path d="M121.017 7.6899C122.818 11.5105 119.001 12.5927 114.629 14.6405C110.257 16.6883 106.985 18.9263 105.183 15.1057C103.382 11.285 101.921 3.7018 108.106 0.804828C114.504 -2.19194 119.216 3.86928 121.017 7.6899Z" fill="#2F2E41"/>
<path d="M112.096 15.2035C115.347 15.2035 117.982 12.5769 117.982 9.33685C117.982 6.09678 115.347 3.47018 112.096 3.47018C108.845 3.47018 106.21 6.09678 106.21 9.33685C106.21 12.5769 108.845 15.2035 112.096 15.2035Z" fill="#FFB8B8"/>
<path d="M141.257 35.3544C141.053 35.0892 140.85 34.8289 140.643 34.5757C140.377 34.246 140.11 33.9268 139.841 33.6178C136.79 30.109 133.545 27.8995 129.972 27.663H129.967L129.914 27.6583L122.794 34.5757L120.374 36.9261L120.426 37.0551L121.733 40.2964H144.617C143.586 38.5908 142.464 36.9411 141.257 35.3544Z" fill="#2F2E41"/>
<path d="M105.695 11.6988L107.802 10.7119L107.509 7.68238L108.918 10.1895L109.925 9.71785L109.754 7.95061L110.576 9.41309L118.059 5.90839C117.356 4.41768 116.088 3.26629 114.533 2.70752C112.979 2.14875 111.265 2.22838 109.769 2.92887L108.685 3.4368C107.189 4.1373 106.034 5.40129 105.473 6.95071C104.913 8.50013 104.993 10.2081 105.695 11.6988Z" fill="#2F2E41"/>
<path d="M154.462 118.188H31.5591C30.5108 118.187 29.5057 117.772 28.7644 117.033C28.0231 116.294 27.6061 115.292 27.6049 114.247V40.6413C27.6057 39.8758 27.9112 39.1419 28.4543 38.6006C28.9974 38.0593 29.7337 37.7548 30.5018 37.7539H155.469C156.25 37.7548 156.999 38.0645 157.552 38.6152C158.104 39.1659 158.415 39.9125 158.416 40.6912V114.247C158.415 115.292 157.998 116.294 157.257 117.033C156.515 117.772 155.51 118.187 154.462 118.188Z" fill="#F2F2F2"/>
<path d="M35.3936 114.247H150.627C151.644 114.247 152.62 113.845 153.339 113.128C154.058 112.411 154.462 111.439 154.462 110.425V47.9519C154.462 46.9383 154.058 45.9662 153.339 45.2495C152.62 44.5327 151.644 44.1301 150.627 44.1301H35.3936C34.3766 44.1301 33.4013 44.5327 32.6822 45.2495C31.9631 45.9662 31.5591 46.9383 31.5591 47.9519V110.425C31.5591 111.439 31.9631 112.411 32.6822 113.128C33.4013 113.845 34.3766 114.247 35.3936 114.247Z" fill="white"/>
<path d="M158.361 40.4159H27.5494V38.4093C27.5509 37.3609 27.9696 36.356 28.7136 35.6149C29.4576 34.8738 30.4662 34.4571 31.5181 34.4562H154.392C155.444 34.4571 156.453 34.8738 157.197 35.6149C157.941 36.356 158.359 37.3609 158.361 38.4093V40.4159Z" fill="#5F89B9"/>
<path d="M34.7618 38.4651C35.3288 38.4651 35.7883 38.0071 35.7883 37.442C35.7883 36.8769 35.3288 36.4189 34.7618 36.4189C34.1949 36.4189 33.7353 36.8769 33.7353 37.442C33.7353 38.0071 34.1949 38.4651 34.7618 38.4651Z" fill="white"/>
<path d="M38.6582 38.4651C39.2252 38.4651 39.6848 38.0071 39.6848 37.442C39.6848 36.8769 39.2252 36.4189 38.6582 36.4189C38.0913 36.4189 37.6317 36.8769 37.6317 37.442C37.6317 38.0071 38.0913 38.4651 38.6582 38.4651Z" fill="white"/>
<path d="M42.5547 38.4651C43.1216 38.4651 43.5812 38.0071 43.5812 37.442C43.5812 36.8769 43.1216 36.4189 42.5547 36.4189C41.9878 36.4189 41.5282 36.8769 41.5282 37.442C41.5282 38.0071 41.9878 38.4651 42.5547 38.4651Z" fill="white"/>
<path d="M96.6061 100.699H86.301C85.6974 100.698 85.1188 100.459 84.6919 100.033C84.2651 99.608 84.025 99.0312 84.0244 98.4296V88.1586C84.025 87.557 84.2651 86.9802 84.6919 86.5548C85.1188 86.1294 85.6974 85.8901 86.301 85.8894H96.6061C97.2097 85.8901 97.7884 86.1294 98.2152 86.5548C98.642 86.9802 98.8821 87.557 98.8828 88.1586V98.4296C98.8821 99.0312 98.642 99.608 98.2152 100.033C97.7884 100.459 97.2097 100.698 96.6061 100.699ZM86.301 86.3671C85.8245 86.3677 85.3676 86.5566 85.0307 86.8924C84.6937 87.2283 84.5042 87.6836 84.5037 88.1586V98.4296C84.5042 98.9046 84.6937 99.3599 85.0307 99.6958C85.3676 100.032 85.8245 100.221 86.301 100.221H96.6061C97.0826 100.221 97.5395 100.032 97.8764 99.6958C98.2134 99.3599 98.4029 98.9046 98.4035 98.4296V88.1586C98.4029 87.6836 98.2134 87.2283 97.8764 86.8924C97.5395 86.5566 97.0826 86.3677 96.6061 86.3671H86.301Z" fill="#CCCCCC"/>
<path d="M94.569 97.8325H88.3381C88.1475 97.8322 87.9647 97.7567 87.8299 97.6223C87.6952 97.488 87.6193 97.3059 87.6191 97.1159V89.4723C87.6193 89.2823 87.6952 89.1002 87.8299 88.9658C87.9647 88.8315 88.1475 88.7559 88.3381 88.7557H92.853C93.0168 88.7559 93.1756 88.8116 93.3034 88.9138L95.0193 90.2881C95.1034 90.3551 95.1712 90.4401 95.2177 90.5368C95.2642 90.6335 95.2883 90.7394 95.288 90.8467V97.1159C95.2878 97.3059 95.212 97.488 95.0772 97.6223C94.9424 97.7567 94.7597 97.8322 94.569 97.8325ZM88.3381 89.2335C88.2746 89.2335 88.2137 89.2587 88.1687 89.3035C88.1238 89.3483 88.0985 89.409 88.0984 89.4723V97.1159C88.0985 97.1792 88.1238 97.2399 88.1687 97.2847C88.2137 97.3295 88.2746 97.3546 88.3381 97.3547H94.569C94.6326 97.3546 94.6935 97.3295 94.7384 97.2847C94.7833 97.2399 94.8086 97.1792 94.8087 97.1159V90.8467C94.8088 90.811 94.8008 90.7757 94.7853 90.7434C94.7698 90.7112 94.7472 90.6829 94.7192 90.6606L93.003 89.2861C92.9604 89.252 92.9075 89.2335 92.853 89.2335H88.3381Z" fill="#CCCCCC"/>
<path d="M93.3708 92.0998H89.5363C89.4728 92.0998 89.4118 92.0746 89.3669 92.0298C89.3219 91.985 89.2967 91.9243 89.2967 91.8609C89.2967 91.7976 89.3219 91.7368 89.3669 91.692C89.4118 91.6472 89.4728 91.622 89.5363 91.622H93.3708C93.4343 91.622 93.4953 91.6472 93.5402 91.692C93.5852 91.7368 93.6104 91.7976 93.6104 91.8609C93.6104 91.9243 93.5852 91.985 93.5402 92.0298C93.4953 92.0746 93.4343 92.0998 93.3708 92.0998Z" fill="#CCCCCC"/>
<path d="M93.3708 93.533H89.5363C89.4728 93.533 89.4118 93.5078 89.3669 93.463C89.3219 93.4182 89.2967 93.3574 89.2967 93.2941C89.2967 93.2307 89.3219 93.17 89.3669 93.1252C89.4118 93.0804 89.4728 93.0552 89.5363 93.0552H93.3708C93.4343 93.0552 93.4953 93.0804 93.5402 93.1252C93.5852 93.17 93.6104 93.2307 93.6104 93.2941C93.6104 93.3574 93.5852 93.4182 93.5402 93.463C93.4953 93.5078 93.4343 93.533 93.3708 93.533Z" fill="#CCCCCC"/>
<path d="M93.3708 94.9661H89.5363C89.4728 94.9661 89.4118 94.941 89.3669 94.8962C89.3219 94.8514 89.2967 94.7906 89.2967 94.7273C89.2967 94.6639 89.3219 94.6032 89.3669 94.5584C89.4118 94.5136 89.4728 94.4884 89.5363 94.4884H93.3708C93.4343 94.4884 93.4953 94.5136 93.5402 94.5584C93.5852 94.6032 93.6104 94.6639 93.6104 94.7273C93.6104 94.7906 93.5852 94.8514 93.5402 94.8962C93.4953 94.941 93.4343 94.9661 93.3708 94.9661Z" fill="#CCCCCC"/>
<path d="M121.051 100.699H110.746C110.142 100.698 109.563 100.459 109.136 100.033C108.71 99.608 108.469 99.0312 108.469 98.4296V88.1586C108.469 87.557 108.71 86.9802 109.136 86.5548C109.563 86.1294 110.142 85.8901 110.746 85.8894H121.051C121.654 85.8901 122.233 86.1294 122.66 86.5548C123.086 86.9802 123.327 87.557 123.327 88.1586V98.4296C123.327 99.0312 123.086 99.608 122.66 100.033C122.233 100.459 121.654 100.698 121.051 100.699ZM110.746 86.3671C110.269 86.3677 109.812 86.5566 109.475 86.8924C109.138 87.2283 108.949 87.6836 108.948 88.1586V98.4296C108.949 98.9046 109.138 99.3599 109.475 99.6958C109.812 100.032 110.269 100.221 110.746 100.221H121.051C121.527 100.221 121.984 100.032 122.321 99.6958C122.658 99.3599 122.847 98.9046 122.848 98.4296V88.1586C122.847 87.6836 122.658 87.2283 122.321 86.8924C121.984 86.5566 121.527 86.3677 121.051 86.3671H110.746Z" fill="#CCCCCC"/>
<path d="M119.253 95.9216H112.543C112.352 95.9214 112.17 95.8458 112.035 95.7115C111.9 95.5771 111.824 95.395 111.824 95.205V91.3832C111.824 91.1932 111.9 91.0111 112.035 90.8767C112.17 90.7424 112.352 90.6668 112.543 90.6666H119.253C119.444 90.6668 119.627 90.7424 119.761 90.8767C119.896 91.0111 119.972 91.1932 119.972 91.3832V95.205C119.972 95.395 119.896 95.5771 119.761 95.7115C119.627 95.8458 119.444 95.9214 119.253 95.9216ZM112.543 91.1443C112.479 91.1444 112.418 91.1696 112.374 91.2144C112.329 91.2592 112.303 91.3199 112.303 91.3832V95.205C112.303 95.2683 112.329 95.329 112.374 95.3738C112.418 95.4186 112.479 95.4438 112.543 95.4438H119.253C119.317 95.4438 119.378 95.4186 119.423 95.3738C119.467 95.329 119.493 95.2683 119.493 95.205V91.3832C119.493 91.3199 119.467 91.2592 119.423 91.2144C119.378 91.1696 119.317 91.1444 119.253 91.1443H112.543Z" fill="#CCCCCC"/>
<path d="M115.898 93.9242C115.763 93.9244 115.631 93.887 115.517 93.8161L111.937 91.5858C111.883 91.5521 111.845 91.4986 111.83 91.4369C111.816 91.3752 111.827 91.3104 111.861 91.2568C111.894 91.2031 111.948 91.1649 112.01 91.1507C112.072 91.1364 112.137 91.1471 112.191 91.1806L115.771 93.4109C115.809 93.4345 115.853 93.447 115.898 93.447C115.943 93.447 115.987 93.4345 116.025 93.4109L119.605 91.1806C119.659 91.1471 119.724 91.1364 119.786 91.1507C119.848 91.1649 119.902 91.2031 119.935 91.2568C119.969 91.3104 119.98 91.3752 119.966 91.4369C119.951 91.4986 119.913 91.5521 119.86 91.5858L116.279 93.8161C116.165 93.887 116.033 93.9245 115.898 93.9242Z" fill="#CCCCCC"/>
<path d="M72.1616 100.699H61.8566C61.253 100.698 60.6743 100.459 60.2475 100.033C59.8206 99.608 59.5806 99.0312 59.5799 98.4296V88.1586C59.5806 87.557 59.8206 86.9802 60.2475 86.5548C60.6743 86.1294 61.253 85.8901 61.8566 85.8894H72.1616C72.7652 85.8901 73.3439 86.1294 73.7707 86.5548C74.1975 86.9802 74.4376 87.557 74.4383 88.1586V98.4296C74.4376 99.0312 74.1975 99.608 73.7707 100.033C73.3439 100.459 72.7652 100.698 72.1616 100.699ZM61.8566 86.3671C61.38 86.3677 60.9232 86.5566 60.5862 86.8924C60.2492 87.2283 60.0597 87.6836 60.0592 88.1586V98.4296C60.0597 98.9046 60.2492 99.3599 60.5862 99.6958C60.9232 100.032 61.38 100.221 61.8566 100.221H72.1616C72.6381 100.221 73.095 100.032 73.4319 99.6958C73.7689 99.3599 73.9584 98.9046 73.959 98.4296V88.1586C73.9584 87.6836 73.7689 87.2283 73.4319 86.8924C73.095 86.5566 72.6381 86.3677 72.1616 86.3671H61.8566Z" fill="#CCCCCC"/>
<path d="M70.3642 95.9216H63.654C63.4633 95.9214 63.2806 95.8458 63.1458 95.7115C63.011 95.5771 62.9352 95.395 62.935 95.205V91.3832C62.9352 91.1932 63.011 91.0111 63.1458 90.8767C63.2806 90.7424 63.4633 90.6668 63.654 90.6666H70.3642C70.5548 90.6668 70.7376 90.7424 70.8723 90.8767C71.0071 91.0111 71.0829 91.1932 71.0832 91.3832V95.205C71.0829 95.395 71.0071 95.5771 70.8723 95.7115C70.7376 95.8458 70.5548 95.9214 70.3642 95.9216ZM63.654 91.1443C63.5904 91.1444 63.5295 91.1696 63.4846 91.2144C63.4396 91.2592 63.4144 91.3199 63.4143 91.3832V95.205C63.4144 95.2683 63.4396 95.329 63.4846 95.3738C63.5295 95.4186 63.5904 95.4438 63.654 95.4438H70.3642C70.4277 95.4438 70.4887 95.4186 70.5336 95.3738C70.5785 95.329 70.6038 95.2683 70.6039 95.205V91.3832C70.6038 91.3199 70.5785 91.2592 70.5336 91.2144C70.4887 91.1696 70.4277 91.1444 70.3642 91.1443H63.654Z" fill="#CCCCCC"/>
<path d="M69.3006 95.9216H64.4779C64.3937 95.9216 64.3111 95.8995 64.2382 95.8576C64.1653 95.8157 64.1048 95.7554 64.0627 95.6827C64.0207 95.6101 63.9985 95.5277 63.9985 95.4438C63.9986 95.36 64.0207 95.2776 64.0628 95.205L65.5155 92.6969C65.5576 92.6243 65.6181 92.564 65.6909 92.5221C65.7638 92.4801 65.8465 92.4581 65.9306 92.4581C66.0147 92.4581 66.0974 92.4801 66.1703 92.5221C66.2431 92.564 66.3036 92.6243 66.3457 92.6969L67.284 94.3167L67.8275 93.3783C67.8696 93.3057 67.9301 93.2454 68.003 93.2034C68.0758 93.1615 68.1585 93.1394 68.2426 93.1394C68.3268 93.1394 68.4094 93.1615 68.4823 93.2034C68.5551 93.2454 68.6157 93.3057 68.6577 93.3783L69.7158 95.205C69.7579 95.2776 69.78 95.36 69.78 95.4439C69.78 95.5277 69.7579 95.6101 69.7158 95.6827C69.6737 95.7554 69.6132 95.8157 69.5403 95.8576C69.4674 95.8995 69.3848 95.9216 69.3006 95.9216ZM69.3006 95.4438L68.2426 93.6172L67.4916 94.9139C67.4705 94.9502 67.4403 94.9803 67.4038 95.0013C67.3674 95.0223 67.326 95.0333 67.284 95.0333C67.2419 95.0333 67.2006 95.0223 67.1641 95.0013C67.1277 94.9803 67.0974 94.9502 67.0764 94.9139L65.9307 92.9358L64.4779 95.4438H69.3006Z" fill="#CCCCCC"/>
<path d="M69.6452 92.5775C69.9099 92.5775 70.1245 92.3636 70.1245 92.0997C70.1245 91.8359 69.9099 91.622 69.6452 91.622C69.3805 91.622 69.1659 91.8359 69.1659 92.0997C69.1659 92.3636 69.3805 92.5775 69.6452 92.5775Z" fill="#CCCCCC"/>
<path d="M184.25 154.818L181.312 154.817L179.914 143.522L184.251 143.522L184.25 154.818Z" fill="#FFB8B8"/>
<path d="M184.999 157.656L175.526 157.656V157.537C175.526 157.054 175.621 156.576 175.807 156.13C175.992 155.684 176.264 155.279 176.606 154.938C176.948 154.596 177.355 154.326 177.802 154.141C178.25 153.956 178.729 153.861 179.213 153.861H179.214L185 153.862L184.999 157.656Z" fill="#2F2E41"/>
<path d="M196.233 154.818L193.295 154.817L191.897 143.522L196.233 143.522L196.233 154.818Z" fill="#FFB8B8"/>
<path d="M196.982 157.656L187.508 157.656V157.537C187.508 157.054 187.604 156.576 187.789 156.13C187.974 155.684 188.246 155.279 188.588 154.938C188.931 154.596 189.337 154.326 189.785 154.141C190.232 153.956 190.712 153.861 191.196 153.861H191.196L196.982 153.862L196.982 157.656Z" fill="#2F2E41"/>
<path d="M195.352 149.921L192.631 149.096C192.428 149.035 192.248 148.915 192.113 148.752C191.978 148.59 191.894 148.391 191.872 148.181L189.335 124.217C189.333 124.188 189.32 124.16 189.299 124.141C189.278 124.121 189.25 124.11 189.221 124.11C189.191 124.107 189.162 124.116 189.14 124.134C189.117 124.152 189.102 124.178 189.098 124.207L184.849 147.425C184.823 147.565 184.769 147.7 184.691 147.82C184.612 147.939 184.51 148.042 184.391 148.123C184.272 148.203 184.138 148.258 183.997 148.286C183.856 148.314 183.711 148.313 183.571 148.284L180.093 147.57C179.838 147.517 179.611 147.374 179.453 147.167C179.295 146.961 179.218 146.704 179.234 146.445L181.819 108.391L199.347 106.506L196.742 148.958C196.725 149.231 196.605 149.487 196.405 149.675C196.206 149.863 195.942 149.967 195.668 149.968C195.561 149.968 195.454 149.952 195.352 149.921Z" fill="#2F2E41"/>
<path d="M195.335 75.2527C198.586 75.2527 201.221 72.6261 201.221 69.386C201.221 66.1459 198.586 63.5193 195.335 63.5193C192.085 63.5193 189.449 66.1459 189.449 69.386C189.449 72.6261 192.085 75.2527 195.335 75.2527Z" fill="#FFB8B8"/>
<path d="M181.792 108.615L185.593 84.7642C185.795 83.4961 186.265 82.2855 186.974 81.2128C187.682 80.1401 188.611 79.23 189.699 78.5431C190.787 77.8562 192.01 77.4081 193.286 77.2288C194.561 77.0494 195.861 77.1429 197.097 77.503C199.259 78.1262 201.11 79.5304 202.289 81.4413C203.468 83.3522 203.89 85.6324 203.472 87.8367L199.496 109.136L181.792 108.615Z" fill="#5F89B9"/>
<path d="M196.96 112.882C197.254 112.689 197.502 112.433 197.686 112.134C197.871 111.835 197.987 111.499 198.027 111.15C198.067 110.801 198.029 110.448 197.917 110.115C197.806 109.782 197.622 109.477 197.379 109.223L201.308 101.639L196.883 102.109L193.83 109.239C193.428 109.674 193.2 110.241 193.19 110.832C193.179 111.423 193.386 111.997 193.772 112.446C194.158 112.895 194.695 113.188 195.283 113.268C195.871 113.349 196.467 113.211 196.96 112.882Z" fill="#FFB8B8"/>
<path d="M197.802 107.885C197.584 107.855 197.382 107.759 197.22 107.61L195.717 106.226C195.554 106.075 195.442 105.879 195.395 105.663C195.349 105.447 195.369 105.222 195.455 105.018L198.46 97.9199L198.034 83.894C198.095 83.4432 198.245 83.0087 198.474 82.6156C198.704 82.2225 199.01 81.8783 199.373 81.6029C199.736 81.3274 200.151 81.126 200.592 81.0102C201.033 80.8944 201.493 80.8665 201.946 80.928C202.398 80.9894 202.834 81.1392 203.228 81.3686C203.622 81.598 203.967 81.9027 204.243 82.265C204.519 82.6274 204.721 83.0405 204.837 83.4806C204.953 83.9207 204.98 84.3793 204.918 84.83L205.647 93.6469C205.868 96.3229 205.107 98.9879 203.505 101.146L198.819 107.46C198.729 107.581 198.614 107.682 198.482 107.757C198.35 107.831 198.204 107.877 198.053 107.891C197.97 107.899 197.885 107.897 197.802 107.885Z" fill="#5F89B9"/>
<path d="M161.439 66.1896C161.503 66.5349 161.643 66.8619 161.847 67.1477C162.052 67.4336 162.317 67.6712 162.624 67.8438C162.931 68.0165 163.272 68.12 163.623 68.1471C163.974 68.1742 164.327 68.1242 164.657 68.0006L170.132 74.5641L171.422 70.3191L166.025 64.7371C165.78 64.1987 165.346 63.7686 164.804 63.5282C164.262 63.2879 163.65 63.254 163.085 63.433C162.52 63.6121 162.04 63.9916 161.737 64.4996C161.433 65.0077 161.327 65.609 161.439 66.1896Z" fill="#FFB8B8"/>
<path d="M165.728 68.9102C165.841 68.7226 166.009 68.5738 166.209 68.4836L168.074 67.6436C168.276 67.5532 168.501 67.5268 168.719 67.568C168.937 67.6092 169.137 67.7161 169.291 67.8742L174.678 73.3995L187.803 78.4769C188.196 78.7089 188.539 79.0158 188.813 79.38C189.086 79.7442 189.285 80.1586 189.398 80.5995C189.511 81.0405 189.536 81.4993 189.471 81.9497C189.406 82.4001 189.252 82.8333 189.019 83.2245C188.786 83.6157 188.477 83.9573 188.112 84.2297C187.746 84.5021 187.33 84.6999 186.887 84.8119C186.445 84.924 185.985 84.948 185.533 84.8825C185.081 84.8171 184.646 84.6636 184.254 84.4307L175.824 81.6619C173.265 80.822 171.1 79.0843 169.73 76.772L165.724 70.0098C165.647 69.8797 165.598 69.735 165.581 69.5849C165.564 69.4349 165.579 69.283 165.624 69.139C165.65 69.0589 165.685 68.9821 165.728 68.9102Z" fill="#5F89B9"/>
<path opacity="0.1" d="M200.11 89.7286L199.87 97.3721L195.455 105.018L199.141 96.4974L200.11 89.7286Z" fill="black"/>
<path d="M194.661 70.4885C194.291 70.5364 193.917 70.4489 193.607 70.2423C193.297 70.0358 193.073 69.7241 192.976 69.3653C192.883 68.9523 192.678 68.5724 192.385 68.2663C192.092 67.9603 191.72 67.7396 191.31 67.6279C190.231 67.382 188.911 67.8886 188.12 67.0732C187.95 66.8871 187.828 66.6635 187.762 66.4208C187.697 66.1782 187.69 65.9235 187.742 65.6777C187.888 64.8854 188.457 64.2868 189.075 63.808C190.378 62.8052 191.954 62.2182 193.597 62.1239C194.447 62.0994 195.298 62.1416 196.142 62.2501C197.026 62.3057 197.899 62.4648 198.746 62.7243C199.71 63.0869 200.566 63.6858 201.236 64.4657C201.907 65.2456 202.369 66.1813 202.58 67.1863C202.774 68.1945 202.744 69.2325 202.493 70.228C202.243 71.2235 201.777 72.1525 201.129 72.9501C200.353 73.9132 199.352 74.6724 198.214 75.1617C197.943 75.2892 197.633 75.3049 197.35 75.2053C196.642 74.9245 196.757 74.0495 197.08 73.4658C197.426 72.8413 197.958 72.2366 197.68 71.4765C197.541 71.124 197.273 70.8369 196.931 70.6724C196.226 70.3143 195.438 70.399 194.681 70.4862L194.661 70.4885Z" fill="#2F2E41"/>
<path d="M159.472 73.8015H86.6181C85.5697 73.8003 84.5646 73.3847 83.8233 72.6458C83.082 71.907 82.665 70.9052 82.6638 69.8603V54.3343C82.665 53.2894 83.082 52.2876 83.8233 51.5488C84.5646 50.8099 85.5697 50.3943 86.6181 50.3931H159.472C160.521 50.3943 161.526 50.8099 162.267 51.5488C163.008 52.2877 163.425 53.2894 163.426 54.3343V69.8603C163.425 70.9052 163.008 71.907 162.267 72.6458C161.526 73.3847 160.521 73.8003 159.472 73.8015Z" fill="white"/>
<path d="M159.472 73.9209H86.6181C85.5379 73.9197 84.5024 73.4915 83.7386 72.7303C82.9748 71.969 82.5452 70.9369 82.544 69.8603V54.3343C82.5452 53.2578 82.9748 52.2256 83.7386 51.4644C84.5024 50.7031 85.5379 50.2749 86.6181 50.2737H159.472C160.552 50.2749 161.588 50.7031 162.352 51.4644C163.115 52.2256 163.545 53.2578 163.546 54.3343V69.8603C163.545 70.9369 163.115 71.969 162.352 72.7303C161.588 73.4915 160.552 73.9197 159.472 73.9209ZM86.6181 50.7514C85.665 50.7525 84.7513 51.1303 84.0774 51.802C83.4034 52.4737 83.0244 53.3844 83.0233 54.3343V69.8603C83.0244 70.8102 83.4034 71.7209 84.0774 72.3926C84.7513 73.0643 85.665 73.4422 86.6181 73.4432H159.472C160.425 73.4422 161.339 73.0643 162.013 72.3926C162.687 71.7209 163.066 70.8102 163.067 69.8603V54.3343C163.066 53.3844 162.687 52.4737 162.013 51.802C161.339 51.1303 160.425 50.7525 159.472 50.7514H86.6181Z" fill="#3F3D56"/>
<path d="M150.605 69.9798H95.4852C94.4368 69.9786 93.4317 69.563 92.6904 68.8241C91.9491 68.0852 91.5321 67.0835 91.5309 66.0386V57.9173C91.5321 56.8724 91.9491 55.8706 92.6904 55.1317C93.4317 54.3929 94.4368 53.9773 95.4852 53.9761H150.605C151.653 53.9773 152.659 54.3929 153.4 55.1317C154.141 55.8706 154.558 56.8724 154.559 57.9173V66.0386C154.558 67.0835 154.141 68.0852 153.4 68.8241C152.659 69.563 151.653 69.9786 150.605 69.9798Z" fill="#F2F2F2"/>
<path d="M107.347 65.6025C109.958 65.6025 112.076 63.4923 112.076 60.8892C112.076 58.2861 109.958 56.1759 107.347 56.1759C104.735 56.1759 102.618 58.2861 102.618 60.8892C102.618 63.4923 104.735 65.6025 107.347 65.6025Z" fill="#FF6584"/>
<path d="M147.18 69.5041L140.505 63.9244L133.945 58.441C133.772 58.2963 133.553 58.2172 133.327 58.2176C133.101 58.2181 132.883 58.298 132.71 58.4434L126.172 63.9519L124.575 65.2975L122.167 63.2845L114.848 57.1671C114.675 57.0224 114.457 56.9433 114.231 56.9437C114.005 56.9442 113.786 57.0241 113.614 57.1695L106.319 63.315L98.9098 69.5572C98.8723 69.5889 98.8454 69.6312 98.8328 69.6786C98.8202 69.7259 98.8226 69.776 98.8395 69.822C98.8565 69.868 98.8872 69.9077 98.9275 69.9357C98.9678 69.9637 99.0158 69.9786 99.065 69.9785L114.256 69.9494L119.064 69.9401L119.017 69.9798L133.35 69.9522L147.026 69.926C147.075 69.9259 147.123 69.9108 147.164 69.8826C147.204 69.8545 147.234 69.8146 147.251 69.7686C147.268 69.7225 147.27 69.6725 147.257 69.6251C147.244 69.5778 147.217 69.5356 147.18 69.5041Z" fill="#3F3D56"/>
<path d="M209.76 158H163.747C163.684 158 163.623 157.975 163.578 157.93C163.533 157.885 163.508 157.825 163.508 157.761C163.508 157.698 163.533 157.637 163.578 157.592C163.623 157.547 163.684 157.522 163.747 157.522H209.76C209.824 157.522 209.885 157.547 209.93 157.592C209.975 157.637 210 157.698 210 157.761C210 157.825 209.975 157.885 209.93 157.93C209.885 157.975 209.824 158 209.76 158Z" fill="#CCCCCC"/>
<path d="M144.763 31.5087C144.572 31.1987 144.319 30.9308 144.02 30.7213C143.721 30.5119 143.383 30.3653 143.026 30.2905C142.895 30.263 142.762 30.2463 142.628 30.2403L124.369 13.9691C124.01 13.6017 123.532 13.3739 123.019 13.3266C122.918 13.315 122.817 13.3118 122.715 13.317C122.294 13.3361 121.887 13.4771 121.545 13.7228C121.203 13.9685 120.94 14.3083 120.789 14.7005C120.637 15.0928 120.603 15.5206 120.692 15.9315C120.78 16.3425 120.987 16.7189 121.287 17.0146L128.277 23.0888L139.757 33.0613C139.766 33.2491 139.794 33.4355 139.841 33.6178C139.978 34.1459 140.273 34.6199 140.687 34.977C141.101 35.334 141.614 35.5573 142.158 35.6171C142.654 35.6749 143.157 35.5921 143.608 35.3782C143.966 35.2115 144.283 34.9694 144.538 34.6688C144.564 34.6378 144.588 34.6091 144.612 34.5757C144.947 34.1404 145.141 33.6136 145.168 33.0657C145.195 32.5177 145.054 31.9745 144.763 31.5087Z" fill="#FFB8B8"/>
<path d="M113.532 47.1899L113.362 40.2964L113.218 34.5757L113.119 30.5724L112.925 22.7688C112.887 22.351 112.727 21.9534 112.466 21.6244C112.205 21.2955 111.853 21.0496 111.454 20.9166C111.054 20.7836 110.625 20.7694 110.218 20.8756C109.81 20.9818 109.443 21.2039 109.16 21.5148C109.094 21.5858 109.034 21.6625 108.981 21.7441C108.686 22.1652 108.553 22.6783 108.607 23.1892L109.033 34.5757L109.247 40.2964L109.52 47.5936C109.441 47.7008 109.37 47.8134 109.307 47.9304C109.136 48.2525 109.033 48.6058 109.004 48.9687C108.975 49.3317 109.02 49.6968 109.137 50.0419C109.258 50.4038 109.456 50.7359 109.715 51.0163C109.975 51.2966 110.292 51.519 110.644 51.6686C110.996 51.8182 111.376 51.8917 111.759 51.8843C112.142 51.8769 112.519 51.7887 112.865 51.6256C113.268 51.4361 113.617 51.1508 113.882 50.7949C114.147 50.439 114.32 50.0234 114.386 49.585C114.452 49.1465 114.409 48.6986 114.259 48.2809C114.11 47.8632 113.861 47.4885 113.532 47.1899Z" fill="#FFB8B8"/>
<path d="M129.972 27.663L128.277 23.0889L125.536 15.6794C125.338 15.1403 125.021 14.6525 124.608 14.2522C124.195 13.852 123.697 13.5495 123.151 13.3672C123.108 13.3529 123.063 13.3386 123.019 13.3266C122.49 13.1666 121.933 13.1225 121.385 13.1976C120.838 13.2726 120.313 13.4649 119.847 13.7613L110.613 19.5991C109.767 20.1325 109.163 20.9727 108.927 21.9421C108.691 22.9115 108.843 23.9343 109.35 24.7943C110.505 26.7845 111.763 28.7131 113.119 30.5724C114.196 32.0318 116.199 32.1871 116.547 34.5757H123.355L130.247 28.4083L129.972 27.663Z" fill="#CCCCCC"/>
<path d="M24.2443 83.5664C27.3112 83.5664 29.7974 81.0884 29.7974 78.0316C29.7974 74.9748 27.3112 72.4968 24.2443 72.4968C21.1774 72.4968 18.6912 74.9748 18.6912 78.0316C18.6912 81.0884 21.1774 83.5664 24.2443 83.5664Z" fill="#A0616A"/>
<path d="M37.8773 74.2218C37.932 74.2652 37.985 74.3112 38.0364 74.3598C38.2915 74.5993 38.4929 74.8899 38.6275 75.2124C38.7621 75.5349 38.8268 75.8822 38.8174 76.2314C38.8079 76.5805 38.7246 76.9238 38.5728 77.2386C38.4209 77.5535 38.2041 77.8328 37.9364 78.0583C37.874 78.1105 37.8089 78.1594 37.7414 78.2048L38.1172 90.8513C38.1279 91.2653 38.0044 91.6717 37.765 92.0102C37.5256 92.3487 37.1831 92.6012 36.7883 92.7304L36.7654 92.7353L26.4631 93.8288C26.183 93.8585 25.8998 93.8326 25.6298 93.7525C25.3599 93.6725 25.1084 93.54 24.8901 93.3626C24.6718 93.1852 24.4909 92.9665 24.3579 92.719C24.2249 92.4716 24.1423 92.2003 24.1151 91.9209C24.0878 91.6415 24.1164 91.3594 24.1991 91.0911C24.2818 90.8227 24.417 90.5733 24.597 90.3573C24.7769 90.1413 24.998 89.963 25.2475 89.8327C25.4969 89.7023 25.7698 89.6225 26.0504 89.5979L33.3944 88.9532L34.6644 78.0012C34.5814 77.9279 34.5035 77.8489 34.4316 77.7647C34.0334 77.295 33.8245 76.6945 33.8456 76.0799C33.8667 75.4653 34.1161 74.8805 34.5456 74.4389C34.975 73.9973 35.5538 73.7306 36.1694 73.6905C36.7851 73.6503 37.3938 73.8397 37.8773 74.2218Z" fill="#A0616A"/>
<path d="M33.3902 155.062H36.1622L37.4808 144.406H33.3897L33.3902 155.062Z" fill="#A0616A"/>
<path d="M32.6833 154.16L38.142 154.16C38.5989 154.16 39.0515 154.25 39.4736 154.424C39.8956 154.598 40.2791 154.854 40.6022 155.176C40.9252 155.498 41.1814 155.88 41.3563 156.3C41.5311 156.721 41.6211 157.172 41.6211 157.627V157.74L32.6834 157.74L32.6833 154.16Z" fill="#2F2E41"/>
<path d="M5.83936 151.242L8.22101 152.656L14.8241 144.172L11.3089 142.086L5.83936 151.242Z" fill="#A0616A"/>
<path d="M5.69483 150.107L10.3852 152.89C10.7777 153.123 11.1206 153.431 11.3938 153.796C11.667 154.161 11.8654 154.576 11.9777 155.017C12.09 155.459 12.114 155.918 12.0482 156.368C11.9825 156.819 11.8284 157.252 11.5946 157.644L11.5368 157.74L3.85728 153.183L5.69483 150.107Z" fill="#2F2E41"/>
<path d="M36.8162 151.298H33.7123C33.461 151.299 33.2185 151.206 33.0316 151.039C32.8447 150.871 32.7268 150.641 32.7006 150.392L29.5715 121.074C29.5636 121.001 29.5315 120.931 29.4803 120.878C29.4291 120.824 29.3615 120.788 29.2879 120.776C29.2144 120.765 29.1391 120.777 29.0735 120.813C29.0079 120.848 28.9558 120.903 28.9251 120.971L23.28 133.43L13.2857 149.673C13.1563 149.881 12.956 150.036 12.7215 150.109C12.487 150.182 12.2339 150.168 12.0086 150.071L8.01593 148.32C7.88391 148.262 7.76576 148.177 7.66931 148.07C7.57285 147.963 7.50029 147.837 7.45645 147.7C7.4126 147.563 7.39847 147.418 7.41499 147.275C7.43151 147.133 7.47829 146.995 7.55225 146.871L16.7398 131.538L19.5575 118.62C18.6713 113.017 22.4705 104.688 22.509 104.604L22.5279 104.563L32.9929 100.487L33.0453 100.551C37.1724 114.05 39.6873 128.577 37.8304 150.369C37.8075 150.622 37.6909 150.857 37.5034 151.029C37.3159 151.201 37.0709 151.297 36.8162 151.298Z" fill="#2F2E41"/>
<path d="M22.1063 105.929L22.0575 105.826C22.0342 105.778 19.7073 100.886 17.9135 95.6577C17.5687 94.6467 17.4384 93.5754 17.5308 92.5115C17.6231 91.4477 17.9361 90.4146 18.4499 89.4776C18.9705 88.5309 19.6826 87.7023 20.5412 87.0443C21.3998 86.3862 22.3861 85.9131 23.4377 85.6548C25.2634 85.2186 27.1855 85.4507 28.8539 86.3087C30.5222 87.1667 31.8258 88.5935 32.5272 90.3292C33.95 93.8756 33.4966 97.661 33.0698 100.638L33.0613 100.697L33.0069 100.723L22.1063 105.929Z" fill="#3F3D56"/>
<path d="M30.9773 74.9051H22.1596V71.0742C24.095 70.3079 25.9888 69.6561 27.1337 71.0742C28.1531 71.0742 29.1307 71.4778 29.8515 72.1963C30.5723 72.9147 30.9773 73.8891 30.9773 74.9051Z" fill="#2F2E41"/>
<path d="M21.6714 70.3982C16.4 70.3982 14.9245 76.9838 14.9245 80.6992C14.9245 82.7712 15.8647 83.5122 17.342 83.763L17.8638 80.9896L19.0858 83.8823C19.5007 83.8844 19.9367 83.8764 20.3887 83.868L20.803 83.0177L21.7269 83.8528C25.4274 83.8583 28.4181 84.3959 28.4181 80.6992C28.4181 76.9838 27.1242 70.3982 21.6714 70.3982Z" fill="#2F2E41"/>
<path d="M46.2528 158H0.239652C0.176092 158 0.115136 157.975 0.0701922 157.93C0.0252488 157.885 0 157.825 0 157.761C0 157.698 0.0252488 157.637 0.0701922 157.592C0.115136 157.547 0.176092 157.522 0.239652 157.522H46.2528C46.3163 157.522 46.3773 157.547 46.4222 157.592C46.4672 157.637 46.4924 157.698 46.4924 157.761C46.4924 157.825 46.4672 157.885 46.4222 157.93C46.3773 157.975 46.3163 158 46.2528 158Z" fill="#CCCCCC"/>
<path d="M47.118 79.4148H36.8129C36.2093 79.4141 35.6307 79.1748 35.2038 78.7494C34.777 78.324 34.5369 77.7472 34.5363 77.1456V66.8746C34.5369 66.2729 34.777 65.6962 35.2038 65.2708C35.6307 64.8454 36.2093 64.6061 36.8129 64.6054H47.118C47.7216 64.6061 48.3003 64.8454 48.7271 65.2708C49.1539 65.6962 49.394 66.2729 49.3947 66.8746V77.1456C49.394 77.7472 49.1539 78.324 48.7271 78.7494C48.3003 79.1748 47.7216 79.4141 47.118 79.4148Z" fill="white"/>
<path d="M47.118 79.4148H36.8129C36.2093 79.4141 35.6307 79.1748 35.2038 78.7494C34.777 78.324 34.5369 77.7472 34.5363 77.1456V66.8746C34.5369 66.2729 34.777 65.6962 35.2038 65.2708C35.6307 64.8454 36.2093 64.6061 36.8129 64.6054H47.118C47.7216 64.6061 48.3003 64.8454 48.7271 65.2708C49.1539 65.6962 49.394 66.2729 49.3947 66.8746V77.1456C49.394 77.7472 49.1539 78.324 48.7271 78.7494C48.3003 79.1748 47.7216 79.4141 47.118 79.4148ZM36.8129 65.0831C36.3364 65.0836 35.8796 65.2725 35.5426 65.6084C35.2056 65.9442 35.0161 66.3996 35.0156 66.8746V77.1456C35.0161 77.6205 35.2056 78.0759 35.5426 78.4117C35.8796 78.7476 36.3364 78.9365 36.8129 78.937H47.118C47.5945 78.9365 48.0514 78.7476 48.3883 78.4117C48.7253 78.0759 48.9148 77.6205 48.9154 77.1456V66.8746C48.9148 66.3996 48.7253 65.9442 48.3883 65.6084C48.0514 65.2725 47.5945 65.0836 47.118 65.0831H36.8129Z" fill="#3F3D56"/>
<path d="M45.3206 75.2347H38.6103C38.4197 75.2345 38.237 75.1589 38.1022 75.0246C37.9674 74.8902 37.8916 74.7081 37.8914 74.5181V69.502C37.8916 69.312 37.9674 69.1299 38.1022 68.9955C38.237 68.8612 38.4197 68.7856 38.6103 68.7854H40.4994C40.6222 68.785 40.7431 68.8161 40.8504 68.8758C40.9577 68.9356 41.0477 69.0218 41.1117 69.1263L41.6385 69.9797H45.3206C45.5112 69.9799 45.694 70.0555 45.8287 70.1899C45.9635 70.3242 46.0393 70.5063 46.0395 70.6963V74.5181C46.0393 74.7081 45.9635 74.8902 45.8287 75.0246C45.694 75.1589 45.5112 75.2345 45.3206 75.2347Z" fill="#5F89B9"/>
<path d="M45.1023 77.7688C45.1358 77.83 45.1668 77.8929 45.1952 77.9576C45.3371 78.277 45.4096 78.6227 45.4081 78.972C45.4066 79.3213 45.331 79.6663 45.1864 79.9845C45.0417 80.3027 44.8313 80.5868 44.5688 80.8182C44.3063 81.0497 43.9977 81.2233 43.6632 81.3275C43.5854 81.3515 43.5063 81.3714 43.4264 81.3871L38.8492 93.188C38.6979 93.5737 38.4258 93.9005 38.0734 94.1199C37.721 94.3393 37.307 94.4396 36.8929 94.4059L36.8699 94.4016L26.9491 91.4249C26.6794 91.344 26.4284 91.2106 26.2107 91.0324C25.993 90.8542 25.8128 90.6349 25.6806 90.3869C25.5485 90.139 25.4669 89.8674 25.4406 89.5879C25.4144 89.3083 25.4439 89.0264 25.5276 88.7583C25.6113 88.4902 25.7474 88.2413 25.9281 88.0259C26.1088 87.8106 26.3306 87.633 26.5805 87.5036C26.8305 87.3741 27.1037 87.2953 27.3844 87.2717C27.6651 87.248 27.9477 87.2801 28.2159 87.3659L35.2354 89.6121L40.6698 80.0095C40.6218 79.9098 40.5808 79.8069 40.5473 79.7015C40.3632 79.1146 40.4045 78.4804 40.6632 77.9221C40.9219 77.3638 41.3795 76.9213 41.9472 76.6804C42.5149 76.4395 43.1521 76.4175 43.7352 76.6187C44.3182 76.8198 44.8055 77.2297 45.1023 77.7688Z" fill="#A0616A"/>
</g>
<defs>
<clipPath id="clip0_3_121">
<rect width="210" height="158" fill="white"/>
</clipPath>
</defs>
</svg>
